<svg xmlns="http://www.w3.org/2000/svg" xmlns:xlink="http://www.w3.org/1999/xlink" width="33.427" height="33.427" viewBox="0 0 33.427 33.427"><defs><linearGradient id="a" x1="0.5" x2="0.5" y2="1" gradientUnits="objectBoundingBox"><stop offset="0" stop-color="#3385ff"/><stop offset="1" stop-color="#1556c7"/></linearGradient><linearGradient id="b" x1="0.5" x2="0.5" y2="1" gradientUnits="objectBoundingBox"><stop offset="0" stop-color="#f33"/><stop offset="1" stop-color="#c71515"/></linearGradient></defs><g transform="translate(-115.999 -253.999)"><path d="M7.655,14.94H7.283v0a7.58,7.58,0,0,1-5.068-2.183A7.463,7.463,0,0,1,.594,10.377a7.413,7.413,0,0,1,0-5.815A7.453,7.453,0,0,1,2.215,2.188,7.578,7.578,0,0,1,7.1.014V0H22.222a2.054,2.054,0,1,1,0,4.109H7.253a3.386,3.386,0,0,0,.03,6.726v0h4.3a2.054,2.054,0,0,1,0,4.108H7.656Z" transform="translate(125.15 263.15)" fill="url(#a)"/><path d="M16.62,33.427h0a16.8,16.8,0,0,1-15.3-10.207A16.624,16.624,0,0,1,2.87,7.369,16.806,16.806,0,0,1,16.62,0h4.108a2.054,2.054,0,0,1,0,4.109H16.713a12.6,12.6,0,0,0,0,25.21h4.016a2.054,2.054,0,0,1,0,4.108Z" transform="translate(115.999 253.999)" fill="url(#b)"/></g></svg>